<?xml version="1.0" standalone="yes"?>
<svg xmlns="http://www.w3.org/2000/svg" width="2447" height="2675">
<path style="fill:#ffffff; stroke:none;" d="M0 0L0 2675L2447 2675L2447 0L0 0z"/>
<path style="fill:#ae4531; stroke:none;" d="M1225 728L1220 731L1220 734C1223.94 734.741 1225.79 740.254 1226 744L1229 744L1228 748L1231 748L1230 756L1233 756L1235 767L1236 768L1238 767L1239 768L1238 782L1241 782L1240 792L1243 792L1242 804L1245 804L1246 807L1246 808L1244 809L1244 810L1246 811L1246 812L1244 813L1244 814L1246 815L1246 816L1244 817L1244 818L1246 819L1246 820L1244 821L1244 822L1246 823L1246 824L1244 825L1244 826L1246 827L1246 828L1244 829L1244 830L1246 831L1246 832L1244 833L1244 834L1246 835L1246 836L1244 837L1244 838L1246 839L1246 840L1244 841L1244 842L1246 843L1246 844L1244 845L1244 846L1246 847L1246 848L1244 849L1244 850L1246 851L1246 852L1244 853L1244 854L1246 855L1246 856L1244 857L1244 858L1246 859L1246 860L1244 861L1244 862L1246 863L1246 864L1244 865L1244 866L1246 867L1246 868L1244 869L1244 870L1246 871L1246 872L1244 873L1244 874L1246 875L1246 876L1244 877L1244 878L1246 879L1246 880L1245 883L1244 884L1242 883L1243 897L1242 898L1240 897L1239 921L1238 922L1236 921C1235.82 925.184 1236.95 936.27 1232 937L1234 939L1234 940C1230.18 944.936 1229.36 953.041 1231 959L1228 959L1228 960L1225 972L1225 973L1227 974L1227 975L1225 979L1224 980L1222 979C1223.15 981.963 1223.76 984.446 1220 985L1221 995L1220 996L1218 995L1219 1001L1218 1002L1216 1001L1217 1009L1216 1010L1214 1009L1213 1012L1213 1013L1215 1014L1215 1015L1210 1019L1210 1020L1212 1021L1212 1022L1209 1029L1208 1030L1206 1029L1205 1043L1204 1044L1201 1044L1198 1049L1197 1061L1194 1061L1194 1062C1194.76 1066.49 1192.64 1071.79 1188 1073L1190 1075L1190 1076L1187 1085L1184 1085L1184 1086L1185 1091L1184 1092L1182 1091L1176 1105L1176 1106L1178 1107L1178 1108L1174 1109L1175 1113L1174 1114L1172 1113L1166 1120L1165 1120L1157 1116L1156 1115L1157 1113L1151 1112L1150 1111L1151 1109L1148 1109L1149 1107L1146 1107L1147 1105L1146 1104L1141 1104L1140 1103L1141 1101L1139 1099L1137 1097C1129.23 1096.78 1113.32 1080.57 1113 1073L1109 1069L1106 1069L1107 1065L1104 1065L1105 1061L1102 1061L1102 1060L1103 1055L1100 1055L1099 1052L1099 1051L1101 1049L1096 1047L1096 1046L1098 1045L1098 1044L1096 1043L1096 1042L1098 1041L1098 1040L1096 1039L1096 1038L1098 1037L1098 1036L1096 1035L1096 1034L1098 1033L1098 1032L1097 1029L1092 1029L1093 1033L1092 1034L1090 1033L1084 1041L1082 1043L1075 1059L1074 1060L1072 1059L1070 1061L1071 1065L1070 1066L1068 1065L1066 1067L1063 1077L1062 1078L1060 1077L1058 1079L1057 1089L1056 1090L1054 1089L1052 1091L1050 1093L1051 1097L1048 1097L1048 1098L1049 1101L1048 1102L1046 1101L1047 1107L1044 1107L1044 1108L1040 1113L1040 1114L1042 1115L1042 1116L1038 1117L1039 1121L1038 1122L1036 1121L1035 1131L1034 1132L1032 1131L1031 1132L1029 1143L1028 1144L1026 1143L1025 1153L1022 1153L1022 1154L1021 1156L1021 1157L1023 1158L1023 1159L1016 1165L1015 1177L1012 1177L1012 1178L1007 1195L1006 1196L1004 1195L1005 1201L1004 1202L1002 1201L1001 1213L1000 1214L998 1213L997 1216L997 1217L999 1218L999 1219L995 1225L994 1226L992 1225L993 1233L992 1234L990 1233L989 1247L984 1250C987.538 1250 985.137 1255.12 982 1255L983 1261L982 1262L980 1261L981 1269L980 1270L978 1269C978.744 1275.14 976.221 1280.66 972 1285L972 1286L974 1287L974 1288L973 1291L972 1292L970 1291L971 1299L970 1300L968 1299L969 1305L968 1306L966 1305C966.708 1310.84 963.626 1316.55 960 1321L960 1322L962 1323L962 1324L961 1327L960 1328L958 1327L957 1337L956 1338L954 1337L951 1348L950 1349L948 1348L949 1352L948 1353L946 1352L944 1354C944.387 1359.33 938.837 1364.55 934 1366C932.65 1370.82 926.79 1376.57 922 1378L921 1382L920 1382L919 1380L918 1380C914.904 1383.1 908.104 1385.58 909 1382L906 1384L906 1381C903.03 1380.44 902.632 1378.88 903 1376L900 1376L901 1370L898 1370C900.017 1361.89 902.294 1351.32 900 1343L901 1342L903 1343L902 1334L903 1333L905 1334L906 1326L907 1325L909 1326L908 1316L909 1315L911 1316L910 1306L913 1306L913 1305L913 1293L910 1293L902 1301L898 1305C898.302 1309.17 895.949 1311.85 892 1313L890 1315L888 1317L880 1325L877 1337L876 1338L874 1337L871 1348L870 1349L868 1348L866 1350L867 1354L864 1354L864 1355L859 1366L858 1367L856 1366L855 1376L854 1377L852 1376L853 1380L852 1381L850 1380L845 1392L844 1393L842 1392L841 1402L840 1403L838 1402L836 1406L836 1407L838 1408L838 1409L834 1410L835 1414L834 1415L832 1414L833 1422L832 1423L830 1422C830.683 1427.63 827.526 1433.69 824 1438L824 1439L826 1440L826 1441L825 1444L824 1445L822 1444L823 1456L822 1457L820 1456L821 1470L820 1471L818 1470L817 1473L817 1474L817 1481L817 1482L815.333 1500.67L815.333 1555.33L817 1577L817 1578L817 1585L817 1586C821.408 1591.16 820.911 1598.47 820 1605L823 1605L822 1619L826 1620L826 1621L824 1622L824 1623L826 1624L826 1625L824 1626L824 1627L829 1633L829 1634L827 1635L827 1636L828 1639L831 1639L831 1640L830 1651L833 1651L836 1671L838 1673L841 1673L841 1674L842 1685L845 1685L846 1697L848 1699L851 1699L852 1707L855 1707L856 1719L859 1719L858 1723L863 1727L863 1728L861 1729L861 1730C864.412 1733.94 866.734 1737.69 866 1743L869 1743L868 1747L871 1747L870 1749L873 1749L875 1751L873 1753L873 1754L876 1759L879 1759L878 1763C881.891 1764.08 883.653 1767.06 884 1771L887 1771L886 1775L888 1777L891 1777L894 1785L896 1787L899 1787L899 1788L900 1795L902 1797L904 1799C907.74 1800.02 909.289 1803.34 910 1807L914 1811C917.831 1812.07 920.336 1814.91 920 1819L922 1821L924 1823L926 1825L928 1827L930 1829L932 1831L934 1833L936 1835L940 1839L942 1841L944 1843L946 1845L948 1847L952 1851L954 1853L956 1855L958 1857L960 1859L964 1863L966 1865L970 1864L971 1865L970 1867L978 1875L982 1874L983 1875L982 1877L990 1885L992 1887L999 1887L998 1889L1000 1891L1005 1891L1005 1894L1008 1897L1012 1896L1013 1897L1012 1899L1014 1901C1018.77 1900.65 1026.79 1906.37 1028 1911C1030.35 1910.53 1034.8 1909.79 1034 1913L1038 1912L1038 1915L1046 1918L1047 1919L1046 1921C1048.59 1920.48 1058.86 1921.57 1058 1925L1062 1924L1062 1927C1065.04 1927.15 1067.51 1927.74 1068 1931L1083 1935L1082 1937L1104 1942L1105 1943L1104 1945L1116 1946L1117 1950C1123.26 1949.08 1128.59 1949.54 1134 1953L1135 1953L1136 1951L1137 1951L1138 1953L1139 1953L1140 1951L1141 1951L1142 1953L1143 1953L1144 1951L1145 1951L1148 1952L1149 1953L1148 1955L1157 1955C1154.67 1951.73 1151.85 1951.36 1148 1952C1144.99 1947.69 1137.84 1946.73 1133 1945.16C1121.22 1941.36 1109.25 1937.98 1098 1932.68C1068.97 1919.01 1039.04 1897.02 1017.51 1873.29C964.064 1814.34 943.616 1721.06 947.039 1643C948.41 1611.74 955.577 1581.04 958.83 1550C961.024 1529.07 966.779 1509.24 972.445 1489C975.471 1478.2 977.497 1466 982.64 1456C985.701 1450.05 990.431 1435.18 996.427 1431.92C999.785 1430.1 1002.26 1436.96 1003.43 1439C1009.04 1448.79 1014.69 1458.63 1020.98 1468C1037.38 1492.44 1050.86 1519.55 1074 1538.26C1083.75 1546.14 1095.8 1553.93 1109 1553.82C1148.58 1553.48 1168.92 1499.63 1182.37 1470C1213.3 1401.86 1226.71 1328.19 1229.96 1254C1231.28 1223.82 1221.4 1193.18 1227 1163C1241.6 1168.62 1255.38 1183.61 1267 1193.84C1292.28 1216.1 1317.19 1239.19 1341 1263C1366.22 1288.22 1391.57 1313.63 1411.96 1343C1434.3 1375.17 1451.91 1412.8 1466.4 1449C1476.82 1475.04 1487.22 1499.78 1494.42 1527C1511.11 1590.12 1510.19 1658.89 1500.3 1723C1490.98 1783.37 1470.08 1849.57 1425.71 1893.71C1408.8 1910.54 1388.03 1922.28 1367 1933L1367 1934L1373 1935L1373 1932L1383 1931C1383 1927.42 1397.3 1922.29 1401 1923L1401 1920L1405 1921C1405 1918.23 1420.88 1910.21 1425 1911L1425 1908L1429 1909L1433 1907L1432 1903L1443 1901L1443 1898L1447 1899L1450 1893L1451 1893L1452 1895L1453 1895L1454 1891L1455 1890L1457 1891L1457 1888L1461 1889L1465 1887L1465 1884L1477 1879L1479 1877L1481 1875L1481 1872L1487 1871L1489 1869L1491 1867L1493 1865L1493 1862C1497.11 1862.76 1499.31 1861.07 1500 1857L1501 1856L1503 1857L1503 1854L1511 1853L1513 1851L1512 1847L1515 1847L1514 1845L1517 1845L1516 1843L1521 1843L1523 1841L1525 1839L1524 1835L1527 1835L1526 1833L1533 1831L1535 1829L1537 1827L1536 1823L1539 1823L1538 1821L1545 1819L1547 1817L1548 1811L1555 1809L1557 1807L1558 1799L1559 1798L1561 1799L1561 1796C1565.58 1795.22 1568.95 1791.83 1568 1787L1571 1787L1570 1785L1571 1784L1573 1785L1575 1783L1579 1779L1578 1775L1579 1774L1581 1775L1583 1773L1585 1771L1592 1753L1593 1752L1595 1753L1595 1750L1597 1751L1598 1750L1596 1748L1596 1747L1603 1743L1602 1739L1603 1738L1605 1739L1611 1729L1611 1728L1609 1727L1609 1726L1610 1723L1611 1722L1613 1723L1612 1719L1613 1718L1615 1719L1614 1715L1615 1714L1617 1715L1616 1707L1619 1707L1619 1706L1624 1693L1625 1692L1627 1693L1626 1685L1627 1684L1629 1685L1628 1681L1629 1680L1631 1681C1631.15 1677.96 1631.74 1675.49 1635 1675L1636 1663L1639 1663L1639 1662L1638 1659L1639 1658L1641 1659L1642 1654L1642 1653L1640 1651L1645 1651L1643 1649L1643 1648L1645 1647L1645 1646L1643 1644L1647 1643L1646 1635L1647 1634L1649 1635C1648.06 1627.34 1648.72 1615.77 1654 1610L1654 1609L1652 1608L1652 1607L1654 1606L1654 1605L1652 1603L1655 1602L1657 1599L1657 1598L1655 1597L1655 1596L1657 1595L1657 1594L1655 1593L1655 1592L1657 1591L1657 1590L1655 1589L1655 1588L1656 1585L1657 1584L1659 1585L1660 1547L1661 1546L1663 1547L1662.64 1500.65L1661 1454L1658 1454L1659 1432L1656 1432L1655 1429L1655 1428L1657 1427L1657 1426L1655 1425L1655 1424L1657 1423L1657 1422L1652 1416L1652 1415L1654 1414L1654 1413L1653 1410L1650 1410L1650 1409L1651 1398L1648 1398L1648 1397L1647 1376L1644 1376L1643 1373L1643 1372L1645 1371L1645 1370L1643 1369L1643 1368L1645 1367L1645 1366L1640 1364L1642 1362L1642 1361L1641 1356L1638 1356L1637 1342L1634 1342L1635 1335C1631.34 1334.31 1631.71 1331.98 1633 1329L1631 1327L1628 1327L1627 1315L1624 1315L1617 1291L1614 1291L1615 1287L1612 1287L1612 1286L1613 1281L1610 1281L1609 1273L1606 1273L1607 1269L1604 1269L1604 1268L1601 1257C1596.8 1255.86 1594.63 1251.22 1595 1247L1592 1247L1593 1243L1590 1243L1590 1242C1591.11 1238.02 1587.41 1235.93 1584 1235L1586 1233L1586 1232L1583 1225L1580 1225L1581 1221L1578 1221C1578.91 1216.24 1576.67 1212.33 1572 1211L1571 1203L1568 1203L1569 1199L1566 1199L1567 1195L1564 1195L1557 1177L1554 1177L1551 1169L1548 1169L1549 1165L1546 1165L1547 1159L1544 1159L1541 1149L1539 1147L1536 1147L1537 1143L1534 1143L1535 1139L1532 1139L1532 1138L1533 1133C1528.8 1131.86 1526.63 1127.22 1527 1123L1524 1123L1525 1119L1522 1119L1523 1117L1522 1116L1520 1117C1520.13 1113.47 1519.47 1111.99 1516 1111L1518 1109L1518 1108C1514.49 1104.38 1510.53 1100.39 1511 1095L1509 1093L1507 1091C1503.4 1094.5 1504.33 1099.27 1504.33 1104C1504.33 1114.91 1502.33 1125.34 1502.33 1136C1502.33 1141.97 1504.41 1150.26 1498 1153L1497 1156L1497 1157L1499 1158L1499 1159L1497 1160L1497 1161L1499 1162L1499 1163L1497 1164L1497 1165L1499 1166L1499 1167L1497 1168L1497 1169L1499 1170L1499 1171L1497 1172L1497 1173L1499 1174L1499 1175L1497 1176L1497 1177L1499 1179L1496 1179L1495 1180L1494 1183L1494 1184L1496 1185L1496 1186L1494 1187L1494 1188L1496 1189L1496 1190C1492.29 1193.08 1491.74 1196.44 1493 1201L1492 1202L1490 1201L1483 1219L1482 1220L1480 1219L1478 1221L1478 1224L1459 1226L1458 1225L1459 1223L1457 1221L1454 1221L1455 1219L1452 1219L1453 1213C1447.94 1211.63 1446.34 1205.77 1447 1201L1444 1201L1445 1197L1442 1197L1442 1196C1443.35 1192.43 1441.8 1190.24 1439 1188L1439 1187L1441 1185L1436 1183L1436 1182L1438 1181L1438 1180L1437 1177L1434 1177L1434 1176L1433 1165L1430 1165L1431 1161L1430 1160L1427 1160L1429 1158L1429 1157L1427 1156L1427 1155L1429 1154L1429 1153C1426.56 1150.37 1424.2 1148.5 1426 1145L1426 1144C1422.2 1137.66 1419.98 1126.35 1421 1119L1414 1105L1414 1104C1415.91 1101.51 1416.06 1099.42 1414 1097L1414 1096L1416 1095L1416 1094L1415 1091L1412 1091L1413 1063L1410 1063L1410 1062L1411 1031L1408 1031C1410.02 1022.87 1411.72 999.386 1405 994L1405 993L1405 986L1405 985L1405 978L1405 977L1405 970L1405 969L1405 962L1405 961L1407 960L1407 959L1406 956C1402.85 955.41 1402.4 953.64 1404 951L1404 950L1403 943L1400 943L1401 937L1398 937L1398 936L1399 929L1396 929L1391 903L1388 903L1388 902L1389 897L1386 897L1387 891L1384 891L1383 888L1383 887L1385 885C1380.8 883.86 1378.63 879.221 1379 875L1376 875L1377 871L1374 871L1375 867L1372 867L1371 864L1371 863L1373 861C1368.69 859.831 1364.63 853.47 1365 849L1363 847L1360 847L1357 839L1354 839L1355 835L1353 833L1350 833L1350 832L1341 817C1336.65 815.78 1332.3 811.33 1331 807L1329 805C1324.18 803.65 1318.43 797.79 1317 793L1309 785L1307 783L1301 784L1300 783L1301 781L1299 779L1297 777L1294 777L1295 775L1293 773L1291 775L1290 775L1289 771L1287 769L1285 767C1280.83 767.302 1278.15 764.949 1277 761L1275 759L1273 757L1264 755L1264 752L1261 749L1255 750L1254 749L1255 747L1253 745L1241 740L1240 739L1241 737L1233 736L1232 735L1233 733L1225 728z"/>
<path style="fill:#ffffff; stroke:none;" d="M1224 730L1225 731L1224 730M1226 730L1227 731L1226 730M1222 732L1223 733L1222 732M1228 732L1229 733L1228 732M1224 734L1225 735L1224 734M1234 736L1235 737L1234 736M1226 738L1227 739L1226 738M1236 738L1237 739L1236 738M1238 738L1239 739L1238 738M1226 740L1227 741L1226 740M1240 740L1241 741L1240 740M1242 740L1243 741L1242 740M1228 742L1229 743L1228 742M1244 742L1245 743L1244 742M1256 750L1257 751L1256 750M1258 750L1259 751L1258 750M1260 752L1261 753L1260 752M1232 754L1234 756L1232 754M1266 756L1267 757L1266 756M1268 758L1269 759L1268 758M1236 762L1237 763L1236 762M1274 762L1275 763L1274 762M1236 766L1237 767L1236 766M1284 770L1285 771L1284 770M1286 772L1287 773L1286 772M1288 774L1289 775L1288 774M1302 784L1303 785L1302 784M1304 784L1305 785L1304 784M1306 786L1307 787L1306 786M1308 788L1309 789L1308 788M1310 790L1311 791L1310 790M1312 794L1313 795L1312 794M1314 794L1315 795L1314 794M1316 796L1317 797L1316 796M1318 798L1319 799L1318 798z"/>
<path style="fill:#ae4531; stroke:none;" d="M1118 801L1116 803L1114 805C1114.3 809.165 1111.95 811.851 1108 813L1110 815L1110 816L1107 823L1106 824L1104 823L1105 829L1104 830L1102 829L1103 839L1102 840L1100 839L1100 882L1103 882L1104 896L1107 896L1106 900L1109 900L1109 901L1110 903L1110 904L1108 906L1116 910L1125 906L1127 904L1128 892L1129 891L1131 892L1133 890L1135 888L1135 847L1128.74 840.348L1127 801L1118 801z"/>
<path style="fill:#ffffff; stroke:none;" d="M1320 800L1321 801L1320 800M1244 802L1245 803L1244 802M1322 802L1323 803L1322 802M1116 806L1117 807L1116 806M1324 806L1325 807L1324 806M1326 806L1327 807L1326 806M1328 808L1329 809L1328 808M1114 810L1115 811L1114 810M1330 810L1331 811L1330 810M1332 812L1333 813L1332 812M1334 814L1335 815L1334 814M1108 818L1109 819L1108 818M1336 818L1337 819L1336 818M1338 818L1339 819L1338 818M1340 820L1341 821L1340 820M1126 822L1127 823L1126 822M1342 822L1343 823L1342 822M1344 824L1345 825L1344 824M1344 826L1345 827L1344 826M1346 826L1347 827L1346 826M1104 830L1105 831L1104 830M1349 831L1350 832L1349 831M1102 840L1103 841L1102 840z"/>
<path style="fill:#ae4531; stroke:none;" d="M1360 841L1361 842L1360 841z"/>
<path style="fill:#ffffff; stroke:none;" d="M1100 842L1101 843L1100 842M1356 842L1357 843L1356 842M1128 844L1129 845L1128 844M1358 844L1360 846L1358 844M1100 846L1101 847L1100 846M1100 850L1101 851L1100 850M1133 851L1134 852L1133 851M1100 854L1101 855L1100 854M1364 854L1365 855L1364 854M1133 855L1134 856L1133 855M1366 856L1367 857L1366 856M1100 858L1101 859L1100 858M1133 859L1134 860L1133 859M1368 860L1369 861L1368 860M1100 862L1101 863L1100 862M1370 862L1371 863L1370 862M1133 863L1134 864L1133 863M1371 865L1372 866L1371 865M1100 866L1101 867L1100 866M1133 867L1134 868L1133 867M1100 870L1101 871L1100 870M1133 871L1134 872L1133 871M1100 874L1101 875L1100 874M1133 875L1134 876L1133 875M1376 876L1377 877L1376 876M1100 878L1101 879L1100 878M1133 879L1134 880L1133 879M1378 880L1379 881L1378 880M1133 883L1134 884L1133 883M1380 886L1381 887L1380 886M1382 886L1383 887L1382 886M1104 888L1105 889L1104 888M1383 889L1384 890L1383 889M1128 890L1129 891L1128 890M1126 898L1127 899L1126 898M1242 898L1243 899L1242 898M1386 898L1387 899L1386 898M1124 902L1125 903L1124 902M1110 904L1113 907L1110 904M1120 906L1121 907L1120 906M1118 908L1119 909L1118 908M1240 910L1241 911L1240 910M1390 912L1391 913L1390 912M1392 918L1395 921L1392 918M1395 925L1396 926L1395 925M1236 926L1237 927L1236 926M1236 930L1237 931L1236 930M1396 930L1397 931L1396 930M1236 934L1237 935L1236 934M1233 943L1234 944L1233 943z"/>
<path style="fill:#ae4531; stroke:none;" d="M1488 945L1489 946L1488 945z"/>
<path style="fill:#ffffff; stroke:none;" d="M1232 946L1233 947L1232 946z"/>
<path style="fill:#ae4531; stroke:none;" d="M1487 951L1486 952L1482 951L1480 953L1477 965L1476 966L1474 965L1473 971L1472 972L1470 971L1468.33 994L1470 1012L1472 1014L1474 1016L1477 1016L1476 1020L1478 1022L1481 1022L1480 1026C1494.63 1028.54 1501.55 1012.87 1498 1000L1501 1000L1501 999L1501 989L1498 989L1499 975C1495.85 974.41 1495.4 972.64 1497 970L1497 969L1497 962L1497 961L1495 955L1493 953L1490 953L1491 947L1487 951z"/>
<path style="fill:#ffffff; stroke:none;" d="M1488 948L1489 949L1488 948M1402 950L1403 951L1402 950M1482 954L1483 955L1482 954M1490 954L1491 955L1490 954M1402 956L1403 957L1402 956M1480 956L1481 957L1480 956M1404 958L1406 960L1404 958M1478 960L1479 961L1478 960M1494 960L1496 962L1494 960M1404 962L1406 964L1404 962M1494 964L1495 965L1494 964M1404 966L1406 968L1404 966M1476 966L1477 967L1476 966M1228 968L1229 969L1228 968M1494 968L1496 970L1494 968M1473 969L1474 970L1473 969M1404 970L1406 972L1404 970M1226 972L1227 973L1226 972M1494 972L1495 973L1494 972M1404 974L1406 976L1404 974M1226 976L1225 978L1226 976M1470 976L1471 977L1470 976M1404 978L1406 980L1404 978M1497 979L1498 980L1497 979M1224 982L1225 983L1224 982M1404 982L1406 984L1404 982M1497 983L1498 984L1497 983M1224 986L1225 987L1224 986M1404 986L1406 988L1404 986M1221 987L1222 988L1221 987M1497 987L1498 988L1497 987M1404 990L1406 992L1404 990M1498 990L1499 991L1498 990M1221 991L1222 992L1221 991M1404 994L1405 995L1404 994M1218 1002L1219 1003L1218 1002M1497 1003L1498 1004L1497 1003M1497 1007L1498 1008L1497 1007M1471 1009L1472 1010L1471 1009M1216 1010L1217 1011L1216 1010M1497 1011L1498 1012L1497 1011M1214 1012L1215 1013L1214 1012M1476 1014L1477 1015L1476 1014M1497 1015L1492 1021L1497 1015M1214 1016L1215 1017L1214 1016M1211 1019L1212 1020L1211 1019M1212 1022L1213 1023L1212 1022M1490 1022L1491 1023L1490 1022M1481 1023L1485 1027L1481 1023M1210 1024L1211 1025L1210 1024M1488 1024L1489 1025L1488 1024M1486 1026L1487 1027L1486 1026M1209 1027L1210 1028L1209 1027M1092 1034L1093 1035L1092 1034M1090 1036L1091 1037L1090 1036M1206 1036L1207 1037L1206 1036M1088 1038L1089 1039L1088 1038M1088 1042L1089 1043L1088 1042M1202 1044L1203 1045L1202 1044M1082 1048L1083 1049L1082 1048M1080 1050L1081 1051L1080 1050M1078 1052L1079 1053L1078 1052M1099 1053L1100 1054L1099 1053M1199 1053L1200 1054L1199 1053M1076 1054L1075 1056L1076 1054M1100 1056L1101 1057L1100 1056M1198 1056L1199 1057L1198 1056z"/>
<path style="fill:#ae4531; stroke:none;" d="M1072 1057L1073 1058L1072 1057z"/>
<path style="fill:#ffffff; stroke:none;" d="M1075 1057L1076 1058L1075 1057M1104 1066L1105 1067L1104 1066M1194 1068L1195 1069L1194 1068M1189 1077L1190 1078L1189 1077M1062 1078L1063 1079L1062 1078M1112 1078L1113 1079L1112 1078M1189 1079L1188 1081L1189 1079M1060 1080L1061 1081L1060 1080M1114 1080L1115 1081L1114 1080M1116 1082L1117 1083L1116 1082M1058 1084L1059 1085L1058 1084M1118 1084L1119 1085L1118 1084M1120 1086L1121 1087L1120 1086M1056 1090L1057 1091L1056 1090M1124 1090L1125 1091L1124 1090M1126 1092L1127 1093L1126 1092M1184 1092L1185 1093L1184 1092M1128 1094L1129 1095L1128 1094M1414 1094L1415 1095L1414 1094M1505 1095L1506 1096L1505 1095M1130 1096L1131 1097L1130 1096M1182 1096L1183 1097L1182 1096M1180 1098L1181 1099L1180 1098M1414 1098L1415 1099L1414 1098M1505 1099L1506 1100L1505 1099M1414 1100L1415 1101L1414 1100M1048 1102L1049 1103L1048 1102M1180 1102L1177 1106L1180 1102M1414 1102L1415 1103L1414 1102M1505 1103L1506 1104L1505 1103M1142 1104L1143 1105L1142 1104M1512 1104L1513 1105L1512 1104M1414 1106L1415 1107L1414 1106M1514 1106L1515 1107L1514 1106M1505 1107L1506 1108L1505 1107M1414 1108L1415 1109L1414 1108M1044 1110L1045 1111L1044 1110M1417 1111L1418 1112L1417 1111M1505 1111L1506 1112L1505 1111M1042 1112L1043 1113L1042 1112M1152 1112L1152 1115L1155 1115L1152 1112M1518 1112L1520 1114L1518 1112M1174 1114L1175 1115L1174 1114M1416 1114L1418 1116L1416 1114M1505 1115L1506 1116L1505 1115M1158 1116L1159 1117L1158 1116M1172 1116L1173 1117L1172 1116M1162 1118L1163 1119L1162 1118M1168 1118L1169 1119L1168 1118M1505 1119L1506 1120L1505 1119z"/>
<path style="fill:#ae4531; stroke:none;" d="M937 1141L934 1141L935 1143L934 1144L932 1143L929 1152L929 1153L931 1154L931 1155L929 1156L929 1157L931 1158L931 1159L929 1160L929 1161L931 1162L931 1163L929 1164L929 1165L931 1166L931 1167L929 1168L929 1169L931 1170L931 1171L929 1172L929 1173L931 1174L931 1175L929 1176L929 1177L930 1180L933 1180L933 1181L932 1186L935 1186L934 1190L937 1190L936 1194L940 1198L943 1198L941 1201L944 1201L945 1202L944 1204L949 1204L953 1202L951 1200L951 1199C954.349 1196.56 956.856 1194.33 956 1190L957 1189L959 1190L958 1186L959 1185L961 1186L962 1181L962 1180L960 1178L965 1178L963 1172L963 1171L964 1168L965 1167L967 1168L967 1163L964 1163L965 1157L960 1155L960 1154L962 1153L962 1152L960 1151L960 1150L962 1149L962 1148L960 1147L960 1146L962 1145L962 1144L959 1131L956 1131L955 1121C948.431 1122.67 935.557 1133.7 937 1141z"/>
<path style="fill:#ffffff; stroke:none;" d="M952 1122L953 1123L952 1122M1505 1123L1506 1124L1505 1123M950 1124L951 1125L950 1124M954 1124L955 1125L954 1124M948 1126L949 1127L948 1126M1036 1126L1037 1127L1036 1126M1504 1126L1505 1127L1504 1126M946 1128L947 1129L946 1128M1420 1128L1421 1129L1420 1128M1526 1128L1527 1129L1526 1128M944 1130L945 1131L944 1130M942 1132L943 1133L942 1132M940 1134L941 1135L940 1134M1032 1134L1033 1135L1032 1134M938 1136L939 1137L938 1136M1032 1138L1033 1139L1032 1138M937 1139L938 1140L937 1139M958 1140L959 1141L958 1140M1422 1140L1423 1141L1422 1140M1424 1144L1425 1145L1424 1144M1026 1148L1027 1149L1026 1148M932 1150L933 1151L932 1150M1424 1150L1425 1151L1424 1150M930 1152L931 1153L930 1152M1426 1152L1428 1154L1426 1152M1502 1152L1503 1153L1502 1152M1540 1154L1541 1155L1540 1154M930 1156L931 1157L930 1156M1022 1156L1023 1157L1022 1156M1426 1156L1428 1158L1426 1156M1498 1156L1499 1157L1498 1156M962 1158L963 1159L962 1158M930 1160L931 1161L930 1160M1022 1160L1023 1161L1022 1160M1498 1160L1499 1161L1498 1160M1544 1160L1545 1161L1544 1160M963 1161L964 1162L963 1161M1020 1162L1021 1163L1020 1162z"/>
<path style="fill:#b58e31; stroke:none;" d="M1227 1163C1219.18 1192.07 1231.67 1224.6 1229.97 1254C1225.73 1327.24 1213.76 1399.4 1183.25 1467C1174 1487.49 1163.98 1514.05 1148.89 1530.97C1143.97 1536.49 1137.07 1542.09 1131 1546.31C1112.84 1558.92 1091.49 1552.03 1076 1539.06C1051.81 1518.78 1038.07 1491.76 1020.31 1466C1014.34 1457.36 1009.37 1448.02 1004 1439C1002.65 1436.73 1000.9 1430.97 997.944 1430.44C994.4 1429.82 990.82 1439.49 989.472 1442C982.18 1455.58 977.226 1469.04 973.417 1484C970.011 1497.37 965.53 1510.55 962.417 1524C958.098 1542.66 955.901 1562.95 953.917 1582C951.876 1601.59 948.168 1621.29 947.028 1641C944.427 1685.93 951.638 1733.36 965.556 1776C973.494 1800.32 981.073 1829.57 997.25 1850C1028.83 1889.9 1068.49 1921.5 1116 1940.19C1126.91 1944.49 1138.77 1947.9 1150 1951.31C1153.87 1952.48 1160.07 1956.84 1162 1952C1104.33 1940.81 1069.68 1868.85 1075.17 1814C1077.96 1786.15 1094.87 1752.99 1114 1733C1116.41 1744.08 1108.77 1754.76 1115.97 1764.91C1123.83 1775.99 1137.05 1773.6 1147 1767.49C1165.22 1756.32 1179.03 1738 1189.66 1720C1210.42 1684.83 1222.43 1638.14 1227.71 1598C1230.72 1575.13 1230.24 1550.28 1236 1528C1246.6 1549.01 1249.45 1575.42 1255.75 1598C1262.08 1620.75 1271.78 1642.38 1278.45 1665C1282.12 1677.48 1286.16 1689.74 1290.5 1702C1292.24 1706.93 1293.99 1714.41 1298.53 1717.57C1303.64 1721.13 1309.46 1717.35 1312.33 1712.91C1318.49 1703.36 1321.71 1692.05 1324 1681C1334.79 1691 1341.54 1710.9 1348.26 1724C1378.15 1782.31 1391.39 1857.42 1354.64 1915.91C1347.53 1927.22 1333.54 1936.09 1323 1943.96C1319.26 1946.76 1313.63 1948.22 1311 1952L1314 1953L1315 1953L1318 1952L1326 1950L1349.23 1942.05L1362 1938C1365.82 1931.9 1376.8 1928.81 1383 1925.35C1397.32 1917.34 1410.59 1907.9 1422.96 1897.08C1451.84 1871.83 1470.16 1832.43 1482.95 1797C1513.07 1713.56 1515.2 1612.62 1494.66 1527C1488.11 1499.66 1477.21 1474.94 1466.8 1449C1452.14 1412.45 1434.53 1374.5 1411.96 1342C1394.61 1317.01 1373.23 1296.92 1352.96 1274.49C1326.65 1245.36 1296.33 1218.99 1267 1192.95C1256.34 1183.49 1241.12 1166.35 1227 1163z"/>
<path style="fill:#ffffff; stroke:none;" d="M1429 1163L1430 1164L1429 1163M930 1164L931 1165L930 1164M1498 1164L1499 1165L1498 1164M964 1166L965 1167L964 1166M1017 1167L1018 1168L1017 1167M930 1168L931 1169L930 1168M1498 1168L1499 1169L1498 1168M963 1169L964 1170L963 1169M1548 1170L1549 1171L1548 1170M1017 1171L1016 1173L1017 1171M930 1172L931 1173L930 1172M1432 1172L1433 1173L1432 1172M1498 1172L1499 1173L1498 1172M963 1173L964 1174L963 1173M1553 1175L1554 1176L1553 1175M930 1176L931 1177L930 1176M962 1176L963 1177L962 1176M1498 1176L1499 1177L1498 1176M1436 1180L1437 1181L1436 1180M1496 1180L1497 1181L1496 1180M1556 1182L1557 1183L1556 1182M1495 1183L1496 1184L1495 1183M934 1184L935 1185L934 1184M958 1184L959 1185L958 1184M1012 1184L1013 1185L1012 1184M1496 1186L1495 1188L1496 1186M1558 1186L1559 1187L1558 1186M1010 1188L1011 1189L1010 1188M1560 1188L1561 1189L1560 1188M1008 1190L1007 1192L1008 1190M1562 1190L1563 1191L1562 1190M937 1191L938 1192L937 1191M1494 1192L1495 1193L1494 1192M1562 1192L1564 1194L1562 1192z"/>
<path style="fill:#ae4531; stroke:none;" d="M1004 1193L1005 1194L1004 1193z"/>
<path style="fill:#ffffff; stroke:none;" d="M1007 1193L1009 1195L1007 1193M940 1194L941 1195L940 1194M954 1194L951 1198L954 1194M1441 1195L1442 1196L1441 1195M942 1196L943 1197L942 1196M1005 1199L1006 1200L1005 1199M1493 1199L1494 1200L1493 1199M942 1200L943 1201L942 1200M950 1200L951 1201L950 1200M1004 1202L1005 1203L1004 1202M1444 1202L1445 1203L1444 1202M1492 1202L1493 1203L1492 1202M1490 1204L1491 1205L1490 1204M1002 1208L1003 1209L1002 1208M1446 1208L1447 1209L1446 1208M1570 1208L1571 1209L1570 1208M1486 1212L1487 1213L1486 1212M1575 1213L1576 1214L1575 1213M1000 1214L1001 1215L1000 1214M1484 1214L1485 1215L1484 1214M998 1216L999 1217L998 1216M1576 1216L1577 1217L1576 1216M1451 1217L1452 1218L1451 1217z"/>
<path style="fill:#ae4531; stroke:none;" d="M1480 1217L1481 1218L1480 1217z"/>
<path style="fill:#ffffff; stroke:none;" d="M1483 1217L1484 1218L1483 1217M1577 1219L1578 1220L1577 1219M998 1220L999 1221L998 1220M1474 1224L1475 1225L1474 1224M994 1226L995 1227L994 1226M1460 1226L1461 1227L1460 1226M1462 1226L1463 1227L1462 1226M1464 1226L1465 1227L1464 1226M1466 1226L1467 1227L1466 1226M1468 1226L1469 1227L1468 1226M1470 1226L1471 1227L1470 1226M1472 1226L1473 1227L1472 1226M1580 1226L1581 1227L1580 1226M1582 1230L1583 1231L1582 1230M1586 1236L1587 1237L1586 1236M1588 1238L1589 1239L1588 1238M990 1240L991 1241L990 1240M986 1248L987 1249L986 1248M986 1252L987 1253L986 1252M1594 1252L1595 1253L1594 1252M983 1257L984 1258L983 1257M982 1262L983 1263L982 1262M1600 1262L1601 1263L1600 1262M1602 1264L1603 1265L1602 1264M980 1270L981 1271L980 1270M1604 1270L1605 1271L1604 1270M978 1276L979 1277L978 1276M1608 1278L1610 1280L1608 1278M976 1282L973 1286L976 1282M1608 1282L1609 1283L1608 1282M1610 1282L1611 1283L1610 1282M973 1289L974 1290L973 1289M910 1296L911 1297L910 1296z"/>
<path style="fill:#ae4531; stroke:none;" d="M904 1297L905 1298L904 1297M968 1297L969 1298L968 1297z"/>
<path style="fill:#ffffff; stroke:none;" d="M908 1298L909 1299L908 1298M1616 1298L1617 1299L1616 1298M1618 1302L1619 1303L1618 1302M900 1306L901 1307L900 1306M968 1306L969 1307L968 1306M1621 1307L1623 1309L1621 1307M898 1310L899 1311L898 1310M966 1312L967 1313L966 1312M964 1314L965 1315L964 1314M907 1317L908 1318L907 1317M890 1318L891 1319L890 1318M964 1318L962 1321L964 1318M888 1320L889 1321L888 1320M1626 1320L1627 1321L1626 1320M886 1322L887 1323L886 1322M906 1324L907 1325L906 1324M904 1326L906 1328L904 1326M881 1327L882 1328L881 1327M880 1330L881 1331L880 1330M904 1330L905 1331L904 1330M878 1332L879 1333L878 1332M902 1332L903 1333L902 1332M958 1332L959 1333L958 1332M1630 1332L1631 1333L1630 1332M1633 1340L1634 1341L1633 1340M874 1341L875 1342L874 1341M954 1341L955 1342L954 1341M872 1343L873 1344L872 1343M952 1343L953 1344L952 1343z"/>
<path style="fill:#ae4531; stroke:none;" d="M868 1346L869 1347L868 1346z"/>
<path style="fill:#ffffff; stroke:none;" d="M871 1346L873 1348L871 1346z"/>
<path style="fill:#ae4531; stroke:none;" d="M948 1346L949 1347L948 1346z"/>
<path style="fill:#ffffff; stroke:none;" d="M951 1346L953 1348L951 1346M1636 1349L1637 1350L1636 1349M1638 1357L1639 1358L1638 1357M864 1359L865 1360L864 1359M898 1359L899 1360L898 1359M944 1359L945 1360L944 1359M862 1361L863 1362L862 1361M942 1361L943 1362L942 1361M1640 1361L1641 1362L1640 1361M940 1363L941 1364L940 1363M859 1364L860 1365L859 1364M1642 1365L1644 1367L1642 1365M936 1367L937 1368L936 1367M934 1369L935 1370L934 1369M1643 1370L1644 1371L1643 1370M856 1371L857 1372L856 1371M898 1371L899 1372L898 1371M932 1371L933 1372L932 1371M930 1373L931 1374L930 1373M1642 1373L1644 1375L1642 1373M924 1379L925 1380L924 1379M1645 1380L1646 1381L1645 1380M902 1381L903 1382L902 1381M918 1381L916 1384L918 1381M922 1381L923 1382L922 1381M1645 1384L1646 1385L1645 1384M844 1393L845 1394L844 1393M842 1397L843 1398L842 1397M840 1403L841 1404L840 1403M837 1406L838 1407L837 1406M834 1415L835 1416L834 1415M1652 1417L1653 1418L1652 1417M1652 1419L1653 1420L1652 1419M1655 1422L1656 1423L1655 1422M1655 1426L1656 1427L1655 1426M830 1429L831 1430L830 1429M1655 1430L1656 1431L1655 1430M828 1431L829 1432L828 1431z"/>
<path style="fill:#ae4531; stroke:none;" d="M824 1434L825 1435L824 1434z"/>
<path style="fill:#ffffff; stroke:none;" d="M1657 1436L1658 1437L1657 1436M825 1438L826 1439L825 1438M1657 1444L1658 1445L1657 1444M1657 1452L1658 1453L1657 1452M820 1471L821 1472L820 1471M818 1473L819 1474L818 1473M818 1481L819 1482L818 1481M818 1487L819 1488L818 1487M816 1491L817 1492L816 1491M816 1495L817 1496L816 1495M1660 1497L1661 1498L1660 1497M816 1499L817 1500L816 1499M816 1503L817 1504L816 1503M816 1507L817 1508L816 1507M816 1511L817 1512L816 1511M816 1515L817 1516L816 1515M816 1519L817 1520L816 1519M816 1523L817 1524L816 1523M816 1527L817 1528L816 1527z"/>
<path style="fill:#b9b467; stroke:none;" d="M1236 1528C1228.97 1548.77 1230.58 1575.16 1227.71 1597C1222.43 1637.14 1210.42 1683.83 1189.66 1719C1178.98 1737.09 1165.2 1755.48 1147 1766.87C1136.83 1773.24 1125.15 1775.82 1116.64 1764.91C1108.66 1754.68 1117.19 1744.09 1114 1733C1101.87 1741.93 1094.65 1758.65 1088.54 1772C1082.77 1784.6 1077.09 1798.16 1075.29 1812C1069.57 1855.9 1091.43 1910.95 1127 1937.39C1144.52 1950.42 1168.34 1953.75 1189 1958.53C1196.07 1960.16 1201.42 1958.76 1208 1963L1209 1963C1215.45 1959.73 1224.3 1960.85 1230 1965L1231 1965L1232 1963L1233 1963L1234 1965L1235 1965L1236 1963L1237 1963L1238 1965L1239 1965L1240 1963L1241 1963L1242 1965L1243 1965C1247.27 1961.89 1251.12 1960.61 1256 1963L1257 1963L1264 1962C1268.5 1958.08 1272.8 1960.09 1278.04 1958.9C1288.33 1956.55 1298.79 1953.36 1309 1950.41C1325.28 1945.7 1340.87 1931.6 1351.81 1919C1358.95 1910.78 1362.98 1898.92 1367.19 1889C1388.66 1838.4 1373.97 1772.03 1349.3 1725C1344.03 1714.96 1338.45 1705.07 1333.26 1695C1330.68 1690.01 1328.89 1684.09 1324 1681C1321.03 1691.45 1318.44 1701.53 1312.9 1710.99C1310.57 1714.98 1306.39 1720.05 1301.09 1718.42C1291.07 1715.32 1286.29 1689.88 1283.59 1681C1271.97 1642.93 1259.9 1604.99 1248.19 1567C1244.55 1555.19 1243.2 1538.05 1236 1528z"/>
<path style="fill:#ffffff; stroke:none;" d="M816 1531L817 1532L816 1531M816 1535L817 1536L816 1535M816 1539L817 1540L816 1539M816 1543L817 1544L816 1543M816 1547L817 1548L816 1547M816 1551L817 1552L816 1551M816 1555L817 1556L816 1555M816 1559L817 1560L816 1559M816 1563L817 1564L816 1563M817 1568L819 1570L817 1568M1657 1572L1658 1573L1657 1572M818 1577L819 1578L818 1577M1657 1580L1658 1581L1657 1580M818 1585L819 1586L818 1585M1655 1586L1656 1587L1655 1586M820 1587L821 1588L820 1587M1655 1590L1656 1591L1655 1590M1655 1594L1656 1595L1655 1594M1655 1598L1656 1599L1655 1598z"/>
<path style="fill:#ae4531; stroke:none;" d="M1656 1602L1657 1603L1656 1602z"/>
<path style="fill:#ffffff; stroke:none;" d="M1652 1609L1653 1610L1652 1609M1650 1611L1651 1612L1650 1611M1648 1621L1649 1622L1648 1621M825 1622L826 1623L825 1622M828 1631L829 1632L828 1631M1646 1633L1647 1634L1646 1633M828 1635L829 1636L828 1635M1645 1636L1646 1637L1645 1636M1645 1640L1646 1641L1645 1640M1642 1645L1644 1647L1642 1645M1642 1649L1643 1650L1642 1649M1640 1653L1641 1654L1640 1653M1638 1657L1639 1658L1638 1657M835 1662L836 1663L835 1662M836 1667L838 1669L836 1667M1634 1667L1633 1669L1634 1667M1633 1672L1634 1673L1633 1672M842 1677L843 1678L842 1677M1630 1677L1631 1678L1630 1677M1628 1679L1629 1680L1628 1679M845 1688L848 1691L845 1688M1624 1691L1625 1692L1624 1691M847 1694L848 1695L847 1694M850 1697L851 1698L850 1697M1621 1700L1618 1701L1618 1704L1621 1700M856 1713L857 1714L856 1713M1614 1713L1615 1714L1614 1713M857 1716L858 1717L857 1716M860 1719L859 1721L860 1719M1608 1723L1610 1725L1608 1723M862 1725L863 1726L862 1725M1608 1727L1610 1729L1608 1727M862 1729L863 1730L862 1729M864 1731L865 1732L864 1731M1606 1731L1607 1732L1606 1731M866 1735L867 1736L866 1735M1604 1735L1605 1736L1604 1735M1602 1737L1603 1738L1602 1737z"/>
<path style="fill:#99965f; stroke:none;" d="M1357 1743L1358 1744L1357 1743z"/>
<path style="fill:#ffffff; stroke:none;" d="M869 1744L870 1745L869 1744M872 1747L873 1748L872 1747M1594 1749L1595 1750L1594 1749M1596 1749L1597 1750L1596 1749M874 1753L875 1754L874 1753M876 1755L877 1756L876 1755z"/>
<path style="fill:#99965f; stroke:none;" d="M1362 1756L1363 1757L1362 1756z"/>
<path style="fill:#ffffff; stroke:none;" d="M878 1757L879 1758L878 1757M1590 1757L1591 1758L1590 1757M1588 1759L1589 1760L1588 1759z"/>
<path style="fill:#99965f; stroke:none;" d="M1364 1762L1365 1763L1364 1762z"/>
<path style="fill:#ffffff; stroke:none;" d="M1587 1762L1588 1763L1587 1762M884 1767L885 1768L884 1767z"/>
<path style="fill:#99965f; stroke:none;" d="M1366 1768L1367 1769L1366 1768z"/>
<path style="fill:#ffffff; stroke:none;" d="M886 1769L887 1770L886 1769M1582 1769L1583 1770L1582 1769M1580 1771L1581 1772L1580 1771z"/>
<path style="fill:#99965f; stroke:none;" d="M1368 1773L1369 1774L1368 1773z"/>
<path style="fill:#ffffff; stroke:none;" d="M1578 1773L1579 1774L1578 1773M1577 1776L1578 1777L1577 1776z"/>
<path style="fill:#99965f; stroke:none;" d="M1370 1779L1371 1780L1370 1779z"/>
<path style="fill:#ffffff; stroke:none;" d="M892 1781L893 1782L892 1781z"/>
<path style="fill:#99965f; stroke:none;" d="M1372 1786L1373 1787L1372 1786z"/>
<path style="fill:#ffffff; stroke:none;" d="M900 1791L901 1792L900 1791M1566 1791L1562 1796L1566 1791M902 1793L903 1794L902 1793z"/>
<path style="fill:#99965f; stroke:none;" d="M1373 1793L1373 1796L1374 1796L1373 1793z"/>
<path style="fill:#ffffff; stroke:none;" d="M904 1795L907 1798L904 1795M1560 1795L1561 1796L1560 1795M908 1799L909 1800L908 1799M1557 1800L1556 1802L1557 1800z"/>
<path style="fill:#99965f; stroke:none;" d="M1374.33 1802.67L1374.67 1803.33L1374.33 1802.67z"/>
<path style="fill:#ffffff; stroke:none;" d="M910 1803L911 1804L910 1803M1554 1805L1555 1806L1554 1805M1552 1807L1553 1808L1552 1807z"/>
<path style="fill:#99965f; stroke:none;" d="M1375 1808L1375 1816L1376 1816L1375 1808z"/>
<path style="fill:#ffffff; stroke:none;" d="M1550 1809L1551 1810L1550 1809M1546 1813L1547 1814L1546 1813M1544 1815L1545 1816L1544 1815M922 1817L923 1818L922 1817M1542 1817L1543 1818L1542 1817M924 1819L925 1820L924 1819M1540 1819L1541 1820L1540 1819M1534 1825L1535 1826L1534 1825M932 1827L933 1828L932 1827M1532 1827L1533 1828L1532 1827M934 1829L935 1830L934 1829M1530 1829L1531 1830L1530 1829M1528 1831L1529 1832L1528 1831M940 1835L941 1836L940 1835M942 1837L943 1838L942 1837M1522 1837L1523 1838L1522 1837M944 1839L945 1840L944 1839M1520 1839L1521 1840L1520 1839M1518 1841L1519 1842L1518 1841M952 1847L953 1848L952 1847M954 1849L955 1850L954 1849M1510 1849L1511 1850L1510 1849M956 1851L957 1852L956 1851M1504 1851L1504 1854L1507 1851L1504 1851M1508 1851L1509 1852L1508 1851M964 1859L965 1860L964 1859M1498 1859L1496 1862L1498 1859M966 1861L967 1862L966 1861M1494 1861L1495 1862L1494 1861z"/>
<path style="fill:#99965f; stroke:none;" d="M1375 1862L1375 1865L1376 1865L1375 1862z"/>
<path style="fill:#ffffff; stroke:none;" d="M968 1863L969 1864L968 1863z"/>
<path style="fill:#99965f; stroke:none;" d="M1374 1866L1375 1867L1374 1866z"/>
<path style="fill:#ffffff; stroke:none;" d="M978 1871L979 1872L978 1871z"/>
<path style="fill:#99965f; stroke:none;" d="M1373.33 1871.67L1373.67 1872.33L1373.33 1871.67z"/>
<path style="fill:#ffffff; stroke:none;" d="M1480 1871L1481 1872L1480 1871M1482 1871L1483 1872L1482 1871M980 1873L981 1874L980 1873M982 1873L983 1874L982 1873M1478 1873L1479 1874L1478 1873M984 1875L987 1878L984 1875M1476 1875L1477 1876L1476 1875z"/>
<path style="fill:#99965f; stroke:none;" d="M1372 1876L1373 1877L1372 1876M1371 1878L1372 1879L1371 1878z"/>
<path style="fill:#ffffff; stroke:none;" d="M988 1879L989 1880L988 1879M1470 1879L1471 1880L1470 1879M990 1881L991 1882L990 1881M1468 1881L1469 1882L1468 1881z"/>
<path style="fill:#99965f; stroke:none;" d="M1370 1882L1371 1883L1370 1882z"/>
<path style="fill:#ffffff; stroke:none;" d="M992 1883L993 1884L992 1883z"/>
<path style="fill:#99965f; stroke:none;" d="M1369 1883L1370 1884L1369 1883z"/>
<path style="fill:#ffffff; stroke:none;" d="M1464 1883L1465 1884L1464 1883M1466 1883L1467 1884L1466 1883M994 1885L995 1886L994 1885M996 1885L997 1886L996 1885z"/>
<path style="fill:#99965f; stroke:none;" d="M1368.33 1885.67L1368.67 1886.33L1368.33 1885.67z"/>
<path style="fill:#ffffff; stroke:none;" d="M1462 1885L1463 1886L1462 1885z"/>
<path style="fill:#99965f; stroke:none;" d="M1367 1888L1368 1889L1367 1888M1366 1890L1367 1891L1366 1890z"/>
<path style="fill:#ffffff; stroke:none;" d="M1005 1892L1006 1893L1005 1892M1453 1892L1452 1894L1453 1892z"/>
<path style="fill:#99965f; stroke:none;" d="M1365 1893L1366 1894L1365 1893M1364 1894L1365 1895L1364 1894z"/>
<path style="fill:#ffffff; stroke:none;" d="M1010 1895L1011 1896L1010 1895M1012 1895L1013 1896L1012 1895M1014 1897L1015 1898L1014 1897z"/>
<path style="fill:#99965f; stroke:none;" d="M1363.33 1897.67L1363.67 1898.33L1363.33 1897.67z"/>
<path style="fill:#ffffff; stroke:none;" d="M1442 1897L1443 1898L1442 1897M1016 1899L1017 1900L1016 1899z"/>
<path style="fill:#99965f; stroke:none;" d="M1362 1899L1363 1900L1362 1899z"/>
<path style="fill:#ffffff; stroke:none;" d="M1440 1899L1441 1900L1440 1899z"/>
<path style="fill:#99965f; stroke:none;" d="M1361 1901L1362 1902L1361 1901z"/>
<path style="fill:#ffffff; stroke:none;" d="M1022 1903L1023 1904L1022 1903z"/>
<path style="fill:#99965f; stroke:none;" d="M1360 1904L1361 1905L1360 1904z"/>
<path style="fill:#ffffff; stroke:none;" d="M1024 1905L1025 1906L1024 1905M1026 1905L1027 1906L1026 1905z"/>
<path style="fill:#99965f; stroke:none;" d="M1359 1905L1360 1906L1359 1905z"/>
<path style="fill:#ffffff; stroke:none;" d="M1430 1905L1431 1906L1430 1905M1028 1907L1031 1910L1028 1907M1424 1907L1425 1908L1424 1907M1426 1907L1427 1908L1426 1907z"/>
<path style="fill:#99965f; stroke:none;" d="M1358 1908L1359 1909L1358 1908z"/>
<path style="fill:#ffffff; stroke:none;" d="M1422 1909L1423 1910L1422 1909z"/>
<path style="fill:#99965f; stroke:none;" d="M1356.33 1911.67L1356.67 1912.33L1356.33 1911.67z"/>
<path style="fill:#ffffff; stroke:none;" d="M1414 1913L1415 1914L1414 1913z"/>
<path style="fill:#99965f; stroke:none;" d="M1355 1914L1356 1915L1355 1914M1354.33 1915.67L1354.67 1916.33L1354.33 1915.67z"/>
<path style="fill:#ffffff; stroke:none;" d="M1410 1915L1411 1916L1410 1915M1044 1917L1045 1918L1044 1917M1046 1917L1047 1918L1046 1917z"/>
<path style="fill:#99965f; stroke:none;" d="M1353 1917L1352 1919L1354 1919L1353 1917z"/>
<path style="fill:#ffffff; stroke:none;" d="M1406 1917L1407 1918L1406 1917M1408 1917L1409 1918L1408 1917M1048 1919L1049 1920L1048 1919M1050 1919L1051 1920L1050 1919M1052 1919L1055 1922L1052 1919z"/>
<path style="fill:#99965f; stroke:none;" d="M1351 1919L1352 1920L1351 1919z"/>
<path style="fill:#ffffff; stroke:none;" d="M1400 1919L1401 1920L1400 1919M1402 1919L1403 1920L1402 1919z"/>
<path style="fill:#99965f; stroke:none;" d="M1350 1920L1351 1921L1350 1920M1349 1921L1350 1922L1349 1921z"/>
<path style="fill:#ffffff; stroke:none;" d="M1398 1921L1399 1922L1398 1921z"/>
<path style="fill:#99965f; stroke:none;" d="M1348 1922L1349 1923L1348 1922M1347 1923L1348 1924L1347 1923M1346 1924L1347 1925L1346 1924M1345 1925L1346 1926L1345 1925z"/>
<path style="fill:#ffffff; stroke:none;" d="M1388 1925L1389 1926L1388 1925z"/>
<path style="fill:#99965f; stroke:none;" d="M1344 1926L1345 1927L1344 1926z"/>
<path style="fill:#ffffff; stroke:none;" d="M1068 1927L1069 1928L1068 1927z"/>
<path style="fill:#99965f; stroke:none;" d="M1116 1927L1117 1928L1116 1927M1343 1927L1344 1928L1343 1927z"/>
<path style="fill:#ffffff; stroke:none;" d="M1384 1927L1385 1928L1384 1927z"/>
<path style="fill:#99965f; stroke:none;" d="M1342 1928L1343 1929L1342 1928z"/>
<path style="fill:#ffffff; stroke:none;" d="M1070 1929L1071 1930L1070 1929M1072 1929L1073 1930L1072 1929z"/>
<path style="fill:#99965f; stroke:none;" d="M1118 1929L1119 1930L1118 1929M1341 1929L1342 1930L1341 1929z"/>
<path style="fill:#ffffff; stroke:none;" d="M1378 1929L1379 1930L1378 1929M1380 1929L1381 1930L1380 1929z"/>
<path style="fill:#99965f; stroke:none;" d="M1119 1930L1120 1931L1119 1930M1339.67 1930.33L1340.33 1930.67L1339.67 1930.33z"/>
<path style="fill:#ae4531; stroke:none;" d="M1384 1930L1385 1931L1384 1930z"/>
<path style="fill:#ffffff; stroke:none;" d="M1074 1931L1075 1932L1074 1931M1076 1931L1079 1934L1076 1931z"/>
<path style="fill:#99965f; stroke:none;" d="M1120 1931L1121 1932L1120 1931z"/>
<path style="fill:#ffffff; stroke:none;" d="M1372 1931L1373 1932L1372 1931M1374 1931L1375 1932L1374 1931z"/>
<path style="fill:#99965f; stroke:none;" d="M1337 1932L1338 1933L1337 1932z"/>
<path style="fill:#ffffff; stroke:none;" d="M1370 1933L1371 1934L1370 1933z"/>
<path style="fill:#99965f; stroke:none;" d="M1335 1934L1336 1935L1335 1934M1334 1935L1335 1936L1334 1935z"/>
<path style="fill:#ae4531; stroke:none;" d="M1362 1935L1365 1937L1362 1935z"/>
<path style="fill:#99965f; stroke:none;" d="M1332.67 1936.33L1333.33 1936.67L1332.67 1936.33z"/>
<path style="fill:#ffffff; stroke:none;" d="M1090 1937L1091 1938L1090 1937z"/>
<path style="fill:#99965f; stroke:none;" d="M1331 1937L1332 1938L1331 1937z"/>
<path style="fill:#ae4531; stroke:none;" d="M1358 1937L1357 1940L1358 1937z"/>
<path style="fill:#ffffff; stroke:none;" d="M1360 1937L1361 1938L1360 1937z"/>
<path style="fill:#99965f; stroke:none;" d="M1128 1938L1129 1939L1128 1938M1330 1938L1331 1939L1330 1938z"/>
<path style="fill:#ae4531; stroke:none;" d="M1360 1938L1361 1939L1360 1938z"/>
<path style="fill:#ffffff; stroke:none;" d="M1094 1939L1095 1940L1094 1939M1096 1939L1099 1942L1096 1939z"/>
<path style="fill:#99965f; stroke:none;" d="M1328 1939L1329 1940L1328 1939z"/>
<path style="fill:#ffffff; stroke:none;" d="M1352 1939L1353 1940L1352 1939z"/>
<path style="fill:#99965f; stroke:none;" d="M1327 1940L1328 1941L1327 1940z"/>
<path style="fill:#ae4531; stroke:none;" d="M1351 1940L1350 1943L1351 1940z"/>
<path style="fill:#ffffff; stroke:none;" d="M1100 1941L1101 1942L1100 1941M1102 1941L1103 1942L1102 1941z"/>
<path style="fill:#99965f; stroke:none;" d="M1326 1941L1327 1942L1326 1941z"/>
<path style="fill:#ffffff; stroke:none;" d="M1346 1941L1347 1942L1346 1941M1348 1941L1349 1942L1348 1941M1350 1941L1351 1942L1350 1941z"/>
<path style="fill:#ae4531; stroke:none;" d="M1352 1942L1353 1943L1352 1942z"/>
<path style="fill:#ffffff; stroke:none;" d="M1108 1943L1109 1944L1108 1943M1110 1943L1111 1944L1110 1943z"/>
<path style="fill:#99965f; stroke:none;" d="M1137 1943L1138 1944L1137 1943M1323 1943L1324 1944L1323 1943z"/>
<path style="fill:#ffffff; stroke:none;" d="M1340 1943L1341 1944L1340 1943M1342 1943L1343 1944L1342 1943z"/>
<path style="fill:#ae4531; stroke:none;" d="M1343 1943L1344 1944L1343 1943z"/>
<path style="fill:#99965f; stroke:none;" d="M1322 1944L1323 1945L1322 1944z"/>
<path style="fill:#ae4531; stroke:none;" d="M1342 1944L1343 1945L1342 1944M1344 1944L1345 1945L1344 1944z"/>
<path style="fill:#99965f; stroke:none;" d="M1321 1945L1322 1946L1321 1945z"/>
<path style="fill:#ae4531; stroke:none;" d="M1335 1945L1336 1947L1337 1947L1338 1945L1335 1945z"/>
<path style="fill:#99965f; stroke:none;" d="M1318.67 1946.33L1319.33 1946.67L1318.67 1946.33z"/>
<path style="fill:#ae4531; stroke:none;" d="M1334 1946L1335 1947L1334 1946z"/>
<path style="fill:#99965f; stroke:none;" d="M1145 1947L1146 1948L1145 1947M1317 1947L1318 1948L1317 1947z"/>
<path style="fill:#ffffff; stroke:none;" d="M1117 1948L1118 1949L1117 1948z"/>
<path style="fill:#99965f; stroke:none;" d="M1148 1948L1149 1949L1148 1948M1314 1948L1314 1949L1317 1949L1314 1948z"/>
<path style="fill:#ae4531; stroke:none;" d="M1326 1948L1327 1949L1326 1948z"/>
<path style="fill:#ffffff; stroke:none;" d="M1130 1949L1132 1951L1130 1949z"/>
<path style="fill:#99965f; stroke:none;" d="M1151.67 1949.33L1152.33 1949.67L1151.67 1949.33M1311.67 1949.33L1312.33 1949.67L1311.67 1949.33z"/>
<path style="fill:#ffffff; stroke:none;" d="M1320 1949L1321 1950L1320 1949z"/>
<path style="fill:#99965f; stroke:none;" d="M1154 1950L1155 1951L1154 1950M1280 1958L1280 1959C1287.15 1958.63 1308.82 1957.97 1311 1950L1280 1958z"/>
<path style="fill:#ae4531; stroke:none;" d="M1318 1950L1318 1953L1321 1950L1318 1950z"/>
<path style="fill:#ffffff; stroke:none;" d="M1134 1951L1135 1952L1134 1951M1138 1951L1139 1952L1138 1951M1142 1951L1143 1952L1142 1951M1146 1951L1147 1952L1146 1951M1148 1951L1149 1952L1148 1951z"/>
<path style="fill:#99965f; stroke:none;" d="M1159 1951L1159 1952L1162 1952L1159 1951z"/>
<path style="fill:#ffffff; stroke:none;" d="M1310 1951L1311 1952L1310 1951M1314 1951L1315 1952L1314 1951M1318 1951L1319 1952L1318 1951z"/>
<path style="fill:#99965f; stroke:none;" d="M1162 1952L1162 1955L1173 1955L1172 1957L1173 1957L1177 1957L1162 1952z"/>
<path style="fill:#ffffff; stroke:none;" d="M1150 1953L1151 1954L1150 1953M1152 1953L1153 1954L1152 1953M1154 1953L1155 1954L1154 1953M1156 1953L1157 1954L1156 1953M1158 1953L1159 1954L1158 1953M1160 1953L1161 1954L1160 1953M1162 1953L1163 1954L1162 1953M1164 1953L1165 1954L1164 1953M1302 1953L1303 1954L1302 1953M1304 1953L1305 1954L1304 1953M1306 1953L1307 1954L1306 1953M1308 1953L1309 1954L1308 1953z"/>
<path style="fill:#99965f; stroke:none;" d="M1310 1954L1311 1955L1310 1954z"/>
<path style="fill:#ffffff; stroke:none;" d="M1168 1955L1169 1956L1168 1955z"/>
<path style="fill:#b58e31; stroke:none;" d="M1171 1955L1172 1956L1171 1955z"/>
<path style="fill:#ffffff; stroke:none;" d="M1172 1955L1173 1956L1172 1955M1176 1955L1177 1956L1176 1955M1292 1955L1293 1956L1292 1955M1296 1955L1297 1956L1296 1955z"/>
<path style="fill:#99965f; stroke:none;" d="M1179 1956L1187 1959L1179 1956M1300 1956L1301 1957L1300 1956z"/>
<path style="fill:#ffffff; stroke:none;" d="M1290 1957L1291 1958L1290 1957z"/>
<path style="fill:#99965f; stroke:none;" d="M1264 1960L1264 1963L1272 1963L1273 1963L1274 1958L1264 1960M1292 1958L1293 1959L1292 1958M1196 1961L1200 1963L1201 1963L1204 1962C1201.85 1958.69 1199.06 1958.7 1196 1961z"/>
<path style="fill:#ffffff; stroke:none;" d="M1274 1959L1275 1960L1274 1959M1197 1960L1198 1961L1197 1960M1200 1961L1201 1962L1200 1961M1208 1961L1209 1962L1208 1961z"/>
<path style="fill:#99965f; stroke:none;" d="M1216 1961L1218 1965L1219 1965L1220 1963L1221 1963L1222 1965L1223 1965L1224 1963L1225 1963L1227 1965L1228 1962L1216 1961M1245 1962L1246 1965L1248 1963L1249 1963L1250 1965L1251 1965L1255 1963L1245 1962z"/>
<path style="fill:#ffffff; stroke:none;" d="M1254 1961L1255 1962L1254 1961M1256 1961L1257 1962L1256 1961M1264 1961L1265 1962L1264 1961M1272 1961L1273 1962L1272 1961M1218 1963L1219 1964L1218 1963M1222 1963L1223 1964L1222 1963M1226 1963L1227 1964L1226 1963M1230 1963L1231 1964L1230 1963M1234 1963L1235 1964L1234 1963M1238 1963L1239 1964L1238 1963M1242 1963L1243 1964L1242 1963M1246 1963L1247 1964L1246 1963M1250 1963L1251 1964L1250 1963z"/>
<path style="fill:#99965f; stroke:none;" d="M1254 1964L1255 1965L1254 1964z"/>
</svg>
